<mxfile host="app.diagrams.net" modified="2021-03-24T18:35:34.890Z" agent="5.0 (X11; Linux x86_64) AppleWebKit/537.36 (KHTML, like Gecko) Chrome/88.0.4324.192 Safari/537.36 OPR/74.0.3911.232" etag="5C0SQ0uuRaIOCFPCZZuA" version="14.5.0" type="github">
  <diagram id="0yhtn9goTK8ijMNoCyCc" name="Page-1">
    <mxGraphModel dx="1676" dy="737" grid="1" gridSize="10" guides="1" tooltips="1" connect="1" arrows="1" fold="1" page="1" pageScale="1" pageWidth="827" pageHeight="1169" background="#F4F1DE" math="0" shadow="0">
      <root>
        <mxCell id="0" />
        <mxCell id="1" parent="0" />
        <mxCell id="e-hLkIrjSkkBZsaYSL5f-17" value="" style="rounded=1;whiteSpace=wrap;html=1;sketch=0;strokeColor=#E07A5F;fillColor=#F2CC8F;fontColor=#393C56;" vertex="1" parent="1">
          <mxGeometry x="160" y="302.5" width="80" height="70" as="geometry" />
        </mxCell>
        <mxCell id="e-hLkIrjSkkBZsaYSL5f-32" value="" style="edgeStyle=orthogonalEdgeStyle;curved=0;rounded=1;sketch=0;orthogonalLoop=1;jettySize=auto;html=1;endArrow=none;endFill=0;strokeColor=#E07A5F;fillColor=#F2CC8F;fontColor=#393C56;" edge="1" parent="1" source="e-hLkIrjSkkBZsaYSL5f-6" target="e-hLkIrjSkkBZsaYSL5f-1">
          <mxGeometry relative="1" as="geometry" />
        </mxCell>
        <mxCell id="e-hLkIrjSkkBZsaYSL5f-6" value="" style="rounded=1;whiteSpace=wrap;html=1;fillColor=#F2CC8F;strokeColor=#E07A5F;fontColor=#393C56;" vertex="1" parent="1">
          <mxGeometry x="-42.5" y="155" width="95" height="70" as="geometry" />
        </mxCell>
        <mxCell id="e-hLkIrjSkkBZsaYSL5f-54" style="edgeStyle=orthogonalEdgeStyle;curved=0;rounded=1;sketch=0;orthogonalLoop=1;jettySize=auto;html=1;endArrow=none;endFill=0;strokeColor=#E07A5F;fillColor=#F2CC8F;fontColor=#393C56;" edge="1" parent="1" source="e-hLkIrjSkkBZsaYSL5f-1" target="e-hLkIrjSkkBZsaYSL5f-53">
          <mxGeometry relative="1" as="geometry" />
        </mxCell>
        <mxCell id="e-hLkIrjSkkBZsaYSL5f-1" value="Cliente" style="rounded=1;whiteSpace=wrap;html=1;fillColor=#F2CC8F;strokeColor=#E07A5F;fontColor=#393C56;" vertex="1" parent="1">
          <mxGeometry x="-50" y="40" width="120" height="60" as="geometry" />
        </mxCell>
        <mxCell id="e-hLkIrjSkkBZsaYSL5f-2" value="venda" style="rhombus;whiteSpace=wrap;html=1;fillColor=#F2CC8F;strokeColor=#E07A5F;fontColor=#393C56;" vertex="1" parent="1">
          <mxGeometry x="-30" y="160" width="70" height="60" as="geometry" />
        </mxCell>
        <mxCell id="e-hLkIrjSkkBZsaYSL5f-33" value="" style="edgeStyle=orthogonalEdgeStyle;curved=0;rounded=1;sketch=0;orthogonalLoop=1;jettySize=auto;html=1;endArrow=none;endFill=0;strokeColor=#E07A5F;fillColor=#F2CC8F;fontColor=#393C56;" edge="1" parent="1" source="e-hLkIrjSkkBZsaYSL5f-4" target="e-hLkIrjSkkBZsaYSL5f-2">
          <mxGeometry relative="1" as="geometry" />
        </mxCell>
        <mxCell id="e-hLkIrjSkkBZsaYSL5f-38" value="" style="edgeStyle=orthogonalEdgeStyle;curved=0;rounded=1;sketch=0;orthogonalLoop=1;jettySize=auto;html=1;endArrow=none;endFill=0;strokeColor=#E07A5F;fillColor=#F2CC8F;fontColor=#393C56;" edge="1" parent="1" source="e-hLkIrjSkkBZsaYSL5f-4" target="e-hLkIrjSkkBZsaYSL5f-16">
          <mxGeometry relative="1" as="geometry" />
        </mxCell>
        <mxCell id="e-hLkIrjSkkBZsaYSL5f-4" value="Departamento" style="rounded=1;whiteSpace=wrap;html=1;fillColor=#F2CC8F;strokeColor=#E07A5F;fontColor=#393C56;" vertex="1" parent="1">
          <mxGeometry x="-55" y="310" width="120" height="50" as="geometry" />
        </mxCell>
        <mxCell id="e-hLkIrjSkkBZsaYSL5f-34" value="" style="edgeStyle=orthogonalEdgeStyle;curved=0;rounded=1;sketch=0;orthogonalLoop=1;jettySize=auto;html=1;endArrow=none;endFill=0;strokeColor=#E07A5F;fillColor=#F2CC8F;fontColor=#393C56;" edge="1" parent="1" source="e-hLkIrjSkkBZsaYSL5f-7" target="e-hLkIrjSkkBZsaYSL5f-4">
          <mxGeometry relative="1" as="geometry" />
        </mxCell>
        <mxCell id="e-hLkIrjSkkBZsaYSL5f-7" value="possui" style="rhombus;whiteSpace=wrap;html=1;rounded=0;sketch=0;strokeColor=#E07A5F;fillColor=#F2CC8F;fontColor=#393C56;" vertex="1" parent="1">
          <mxGeometry x="-35" y="430" width="75" height="50" as="geometry" />
        </mxCell>
        <mxCell id="e-hLkIrjSkkBZsaYSL5f-35" value="" style="edgeStyle=orthogonalEdgeStyle;curved=0;rounded=1;sketch=0;orthogonalLoop=1;jettySize=auto;html=1;endArrow=none;endFill=0;strokeColor=#E07A5F;fillColor=#F2CC8F;fontColor=#393C56;" edge="1" parent="1" source="e-hLkIrjSkkBZsaYSL5f-10" target="e-hLkIrjSkkBZsaYSL5f-7">
          <mxGeometry relative="1" as="geometry" />
        </mxCell>
        <mxCell id="e-hLkIrjSkkBZsaYSL5f-36" value="" style="edgeStyle=orthogonalEdgeStyle;curved=0;rounded=1;sketch=0;orthogonalLoop=1;jettySize=auto;html=1;endArrow=none;endFill=0;strokeColor=#E07A5F;fillColor=#F2CC8F;fontColor=#393C56;" edge="1" parent="1" source="e-hLkIrjSkkBZsaYSL5f-10" target="e-hLkIrjSkkBZsaYSL5f-21">
          <mxGeometry relative="1" as="geometry" />
        </mxCell>
        <mxCell id="e-hLkIrjSkkBZsaYSL5f-10" value="Produto" style="rounded=1;whiteSpace=wrap;html=1;sketch=0;strokeColor=#E07A5F;fillColor=#F2CC8F;fontColor=#393C56;" vertex="1" parent="1">
          <mxGeometry x="-57.5" y="560" width="120" height="60" as="geometry" />
        </mxCell>
        <mxCell id="e-hLkIrjSkkBZsaYSL5f-12" value="tipo de produto" style="rhombus;whiteSpace=wrap;html=1;rounded=0;sketch=0;strokeColor=#E07A5F;fillColor=#F2CC8F;fontColor=#393C56;" vertex="1" parent="1">
          <mxGeometry x="-230" y="560" width="80" height="70" as="geometry" />
        </mxCell>
        <mxCell id="e-hLkIrjSkkBZsaYSL5f-14" value="" style="endArrow=none;html=1;strokeColor=#E07A5F;fillColor=#F2CC8F;fontColor=#393C56;entryX=0.154;entryY=-0.05;entryDx=0;entryDy=0;entryPerimeter=0;exitX=0.5;exitY=0;exitDx=0;exitDy=0;" edge="1" parent="1" source="e-hLkIrjSkkBZsaYSL5f-12" target="e-hLkIrjSkkBZsaYSL5f-10">
          <mxGeometry width="50" height="50" relative="1" as="geometry">
            <mxPoint x="-160" y="570" as="sourcePoint" />
            <mxPoint x="-110" y="520" as="targetPoint" />
          </mxGeometry>
        </mxCell>
        <mxCell id="e-hLkIrjSkkBZsaYSL5f-15" value="" style="endArrow=none;html=1;strokeColor=#E07A5F;fillColor=#F2CC8F;fontColor=#393C56;entryX=0.163;entryY=1;entryDx=0;entryDy=0;entryPerimeter=0;exitX=0.5;exitY=1;exitDx=0;exitDy=0;" edge="1" parent="1" source="e-hLkIrjSkkBZsaYSL5f-12" target="e-hLkIrjSkkBZsaYSL5f-10">
          <mxGeometry width="50" height="50" relative="1" as="geometry">
            <mxPoint x="-140" y="650" as="sourcePoint" />
            <mxPoint x="-90" y="600" as="targetPoint" />
          </mxGeometry>
        </mxCell>
        <mxCell id="e-hLkIrjSkkBZsaYSL5f-39" style="edgeStyle=orthogonalEdgeStyle;curved=0;rounded=1;sketch=0;orthogonalLoop=1;jettySize=auto;html=1;entryX=0;entryY=0.5;entryDx=0;entryDy=0;endArrow=none;endFill=0;strokeColor=#E07A5F;fillColor=#F2CC8F;fontColor=#393C56;" edge="1" parent="1" source="e-hLkIrjSkkBZsaYSL5f-16" target="e-hLkIrjSkkBZsaYSL5f-20">
          <mxGeometry relative="1" as="geometry" />
        </mxCell>
        <mxCell id="e-hLkIrjSkkBZsaYSL5f-16" value="registro de vendas" style="rhombus;whiteSpace=wrap;html=1;rounded=0;sketch=0;strokeColor=#E07A5F;fillColor=#F2CC8F;fontColor=#393C56;" vertex="1" parent="1">
          <mxGeometry x="165" y="301.25" width="70" height="67.5" as="geometry" />
        </mxCell>
        <mxCell id="e-hLkIrjSkkBZsaYSL5f-40" value="" style="edgeStyle=orthogonalEdgeStyle;curved=0;rounded=1;sketch=0;orthogonalLoop=1;jettySize=auto;html=1;endArrow=none;endFill=0;strokeColor=#E07A5F;fillColor=#F2CC8F;fontColor=#393C56;" edge="1" parent="1" source="e-hLkIrjSkkBZsaYSL5f-20" target="e-hLkIrjSkkBZsaYSL5f-25">
          <mxGeometry relative="1" as="geometry" />
        </mxCell>
        <mxCell id="e-hLkIrjSkkBZsaYSL5f-20" value="Vendedor" style="rounded=1;whiteSpace=wrap;html=1;sketch=0;strokeColor=#E07A5F;fillColor=#F2CC8F;fontColor=#393C56;" vertex="1" parent="1">
          <mxGeometry x="400" y="200" width="120" height="60" as="geometry" />
        </mxCell>
        <mxCell id="e-hLkIrjSkkBZsaYSL5f-37" value="" style="edgeStyle=orthogonalEdgeStyle;curved=0;rounded=1;sketch=0;orthogonalLoop=1;jettySize=auto;html=1;endArrow=none;endFill=0;strokeColor=#E07A5F;fillColor=#F2CC8F;fontColor=#393C56;" edge="1" parent="1" source="e-hLkIrjSkkBZsaYSL5f-21" target="e-hLkIrjSkkBZsaYSL5f-17">
          <mxGeometry relative="1" as="geometry" />
        </mxCell>
        <mxCell id="e-hLkIrjSkkBZsaYSL5f-21" value="contÃ©m" style="rhombus;whiteSpace=wrap;html=1;rounded=0;sketch=0;strokeColor=#E07A5F;fillColor=#F2CC8F;fontColor=#393C56;" vertex="1" parent="1">
          <mxGeometry x="180" y="490" width="70" height="70" as="geometry" />
        </mxCell>
        <mxCell id="e-hLkIrjSkkBZsaYSL5f-41" value="" style="edgeStyle=orthogonalEdgeStyle;curved=0;rounded=1;sketch=0;orthogonalLoop=1;jettySize=auto;html=1;endArrow=none;endFill=0;strokeColor=#E07A5F;fillColor=#F2CC8F;fontColor=#393C56;" edge="1" parent="1" source="e-hLkIrjSkkBZsaYSL5f-25" target="e-hLkIrjSkkBZsaYSL5f-27">
          <mxGeometry relative="1" as="geometry" />
        </mxCell>
        <mxCell id="e-hLkIrjSkkBZsaYSL5f-42" value="" style="edgeStyle=orthogonalEdgeStyle;curved=0;rounded=1;sketch=0;orthogonalLoop=1;jettySize=auto;html=1;endArrow=none;endFill=0;strokeColor=#E07A5F;fillColor=#F2CC8F;fontColor=#393C56;" edge="1" parent="1" source="e-hLkIrjSkkBZsaYSL5f-25" target="e-hLkIrjSkkBZsaYSL5f-28">
          <mxGeometry relative="1" as="geometry" />
        </mxCell>
        <mxCell id="e-hLkIrjSkkBZsaYSL5f-25" value="" style="triangle;whiteSpace=wrap;html=1;rounded=0;sketch=0;strokeColor=#E07A5F;fillColor=#F2CC8F;fontColor=#393C56;direction=north;" vertex="1" parent="1">
          <mxGeometry x="430" y="310" width="60" height="30" as="geometry" />
        </mxCell>
        <mxCell id="e-hLkIrjSkkBZsaYSL5f-27" value="Chefe de departamento" style="rounded=1;whiteSpace=wrap;html=1;sketch=0;strokeColor=#E07A5F;fillColor=#F2CC8F;fontColor=#393C56;" vertex="1" parent="1">
          <mxGeometry x="550" y="295" width="120" height="60" as="geometry" />
        </mxCell>
        <mxCell id="e-hLkIrjSkkBZsaYSL5f-28" value="Funcionario" style="rounded=1;whiteSpace=wrap;html=1;sketch=0;strokeColor=#E07A5F;fillColor=#F2CC8F;fontColor=#393C56;" vertex="1" parent="1">
          <mxGeometry x="410" y="390" width="120" height="60" as="geometry" />
        </mxCell>
        <mxCell id="e-hLkIrjSkkBZsaYSL5f-43" value="(1,1)" style="text;html=1;align=center;verticalAlign=middle;resizable=0;points=[];autosize=1;fontColor=#393C56;" vertex="1" parent="1">
          <mxGeometry y="360" width="40" height="20" as="geometry" />
        </mxCell>
        <mxCell id="e-hLkIrjSkkBZsaYSL5f-44" value="(0,n)" style="text;html=1;align=center;verticalAlign=middle;resizable=0;points=[];autosize=1;fontColor=#393C56;" vertex="1" parent="1">
          <mxGeometry x="10" y="530" width="40" height="20" as="geometry" />
        </mxCell>
        <mxCell id="e-hLkIrjSkkBZsaYSL5f-45" value="Loja&amp;nbsp;" style="rounded=1;whiteSpace=wrap;html=1;sketch=0;strokeColor=#E07A5F;fillColor=#F2CC8F;fontColor=#393C56;" vertex="1" parent="1">
          <mxGeometry x="-310" y="80" width="120" height="60" as="geometry" />
        </mxCell>
        <mxCell id="e-hLkIrjSkkBZsaYSL5f-48" value="" style="edgeStyle=orthogonalEdgeStyle;curved=0;rounded=1;sketch=0;orthogonalLoop=1;jettySize=auto;html=1;endArrow=none;endFill=0;strokeColor=#E07A5F;fillColor=#F2CC8F;fontColor=#393C56;" edge="1" parent="1" source="e-hLkIrjSkkBZsaYSL5f-47" target="e-hLkIrjSkkBZsaYSL5f-45">
          <mxGeometry relative="1" as="geometry" />
        </mxCell>
        <mxCell id="e-hLkIrjSkkBZsaYSL5f-49" style="edgeStyle=orthogonalEdgeStyle;curved=0;rounded=1;sketch=0;orthogonalLoop=1;jettySize=auto;html=1;entryX=0;entryY=0.75;entryDx=0;entryDy=0;endArrow=none;endFill=0;strokeColor=#E07A5F;fillColor=#F2CC8F;fontColor=#393C56;" edge="1" parent="1" source="e-hLkIrjSkkBZsaYSL5f-47" target="e-hLkIrjSkkBZsaYSL5f-4">
          <mxGeometry relative="1" as="geometry" />
        </mxCell>
        <mxCell id="e-hLkIrjSkkBZsaYSL5f-47" value="posuui" style="rhombus;whiteSpace=wrap;html=1;rounded=0;sketch=0;strokeColor=#E07A5F;fillColor=#F2CC8F;fontColor=#393C56;" vertex="1" parent="1">
          <mxGeometry x="-270" y="270" width="70" height="60" as="geometry" />
        </mxCell>
        <mxCell id="e-hLkIrjSkkBZsaYSL5f-50" value="desligado" style="rhombus;whiteSpace=wrap;html=1;rounded=0;sketch=0;strokeColor=#E07A5F;fillColor=#F2CC8F;fontColor=#393C56;" vertex="1" parent="1">
          <mxGeometry x="410" y="65" width="94" height="70" as="geometry" />
        </mxCell>
        <mxCell id="e-hLkIrjSkkBZsaYSL5f-51" value="" style="endArrow=none;html=1;strokeColor=#E07A5F;fillColor=#F2CC8F;fontColor=#393C56;entryX=0;entryY=0.5;entryDx=0;entryDy=0;" edge="1" parent="1" target="e-hLkIrjSkkBZsaYSL5f-50">
          <mxGeometry width="50" height="50" relative="1" as="geometry">
            <mxPoint x="410" y="200" as="sourcePoint" />
            <mxPoint x="390" y="130" as="targetPoint" />
          </mxGeometry>
        </mxCell>
        <mxCell id="e-hLkIrjSkkBZsaYSL5f-52" value="" style="endArrow=none;html=1;strokeColor=#E07A5F;fillColor=#F2CC8F;fontColor=#393C56;entryX=1;entryY=0.5;entryDx=0;entryDy=0;exitX=-0.029;exitY=0.3;exitDx=0;exitDy=0;exitPerimeter=0;" edge="1" parent="1" source="e-hLkIrjSkkBZsaYSL5f-76" target="e-hLkIrjSkkBZsaYSL5f-50">
          <mxGeometry width="50" height="50" relative="1" as="geometry">
            <mxPoint x="450" y="180" as="sourcePoint" />
            <mxPoint x="500" y="130" as="targetPoint" />
          </mxGeometry>
        </mxCell>
        <mxCell id="e-hLkIrjSkkBZsaYSL5f-55" style="edgeStyle=orthogonalEdgeStyle;curved=0;rounded=1;sketch=0;orthogonalLoop=1;jettySize=auto;html=1;entryX=0;entryY=0.25;entryDx=0;entryDy=0;endArrow=none;endFill=0;strokeColor=#E07A5F;fillColor=#F2CC8F;fontColor=#393C56;" edge="1" parent="1" source="e-hLkIrjSkkBZsaYSL5f-53" target="e-hLkIrjSkkBZsaYSL5f-20">
          <mxGeometry relative="1" as="geometry" />
        </mxCell>
        <mxCell id="e-hLkIrjSkkBZsaYSL5f-53" value="atendido por" style="rhombus;whiteSpace=wrap;html=1;rounded=0;sketch=0;strokeColor=#E07A5F;fillColor=#F2CC8F;fontColor=#393C56;" vertex="1" parent="1">
          <mxGeometry x="180" y="100" width="80" height="80" as="geometry" />
        </mxCell>
        <mxCell id="e-hLkIrjSkkBZsaYSL5f-56" value="(0,n)" style="text;html=1;align=center;verticalAlign=middle;resizable=0;points=[];autosize=1;fontColor=#393C56;" vertex="1" parent="1">
          <mxGeometry x="60" y="340" width="40" height="20" as="geometry" />
        </mxCell>
        <mxCell id="e-hLkIrjSkkBZsaYSL5f-57" value="(1,n)" style="text;html=1;align=center;verticalAlign=middle;resizable=0;points=[];autosize=1;fontColor=#393C56;" vertex="1" parent="1">
          <mxGeometry x="355" y="240" width="40" height="20" as="geometry" />
        </mxCell>
        <mxCell id="e-hLkIrjSkkBZsaYSL5f-58" value="(0,n)" style="text;html=1;align=center;verticalAlign=middle;resizable=0;points=[];autosize=1;fontColor=#393C56;" vertex="1" parent="1">
          <mxGeometry x="69" y="40" width="40" height="20" as="geometry" />
        </mxCell>
        <mxCell id="e-hLkIrjSkkBZsaYSL5f-59" value="(0,1)" style="text;html=1;align=center;verticalAlign=middle;resizable=0;points=[];autosize=1;fontColor=#393C56;" vertex="1" parent="1">
          <mxGeometry x="355" y="200" width="40" height="20" as="geometry" />
        </mxCell>
        <mxCell id="e-hLkIrjSkkBZsaYSL5f-63" style="edgeStyle=orthogonalEdgeStyle;curved=0;rounded=1;sketch=0;orthogonalLoop=1;jettySize=auto;html=1;entryX=0;entryY=0.25;entryDx=0;entryDy=0;endArrow=classic;endFill=1;strokeColor=#E07A5F;fillColor=#F2CC8F;fontColor=#393C56;" edge="1" parent="1" source="e-hLkIrjSkkBZsaYSL5f-60" target="e-hLkIrjSkkBZsaYSL5f-1">
          <mxGeometry relative="1" as="geometry" />
        </mxCell>
        <mxCell id="e-hLkIrjSkkBZsaYSL5f-60" value="&lt;span&gt;nome&lt;/span&gt;" style="text;html=1;align=center;verticalAlign=middle;resizable=0;points=[];autosize=1;fontColor=#393C56;" vertex="1" parent="1">
          <mxGeometry x="-135" y="50" width="50" height="20" as="geometry" />
        </mxCell>
        <mxCell id="e-hLkIrjSkkBZsaYSL5f-61" value="cpf" style="text;html=1;align=center;verticalAlign=middle;resizable=0;points=[];autosize=1;fontColor=#393C56;" vertex="1" parent="1">
          <mxGeometry x="-125" y="70" width="30" height="20" as="geometry" />
        </mxCell>
        <mxCell id="e-hLkIrjSkkBZsaYSL5f-62" value="&lt;ul&gt;&lt;li&gt;rg&lt;/li&gt;&lt;/ul&gt;" style="text;html=1;align=center;verticalAlign=middle;resizable=0;points=[];autosize=1;fontColor=#393C56;" vertex="1" parent="1">
          <mxGeometry x="-165" y="80" width="70" height="40" as="geometry" />
        </mxCell>
        <mxCell id="e-hLkIrjSkkBZsaYSL5f-72" style="edgeStyle=orthogonalEdgeStyle;curved=0;rounded=1;sketch=0;orthogonalLoop=1;jettySize=auto;html=1;entryX=1;entryY=0.25;entryDx=0;entryDy=0;endArrow=classic;endFill=1;strokeColor=#E07A5F;fillColor=#F2CC8F;fontColor=#393C56;" edge="1" parent="1" source="e-hLkIrjSkkBZsaYSL5f-64" target="e-hLkIrjSkkBZsaYSL5f-17">
          <mxGeometry relative="1" as="geometry" />
        </mxCell>
        <mxCell id="e-hLkIrjSkkBZsaYSL5f-64" value="comissÃ£o" style="text;html=1;align=center;verticalAlign=middle;resizable=0;points=[];autosize=1;fontColor=#393C56;" vertex="1" parent="1">
          <mxGeometry x="240" y="372.5" width="70" height="20" as="geometry" />
        </mxCell>
        <mxCell id="e-hLkIrjSkkBZsaYSL5f-65" value="data" style="text;html=1;align=center;verticalAlign=middle;resizable=0;points=[];autosize=1;fontColor=#393C56;" vertex="1" parent="1">
          <mxGeometry x="242" y="394" width="40" height="20" as="geometry" />
        </mxCell>
        <mxCell id="e-hLkIrjSkkBZsaYSL5f-67" value="quantidae de vendas" style="text;html=1;align=center;verticalAlign=middle;resizable=0;points=[];autosize=1;fontColor=#393C56;" vertex="1" parent="1">
          <mxGeometry x="240" y="410" width="130" height="20" as="geometry" />
        </mxCell>
        <mxCell id="e-hLkIrjSkkBZsaYSL5f-68" value="total de vendas" style="text;html=1;align=center;verticalAlign=middle;resizable=0;points=[];autosize=1;fontColor=#393C56;" vertex="1" parent="1">
          <mxGeometry x="242" y="430" width="100" height="20" as="geometry" />
        </mxCell>
        <mxCell id="e-hLkIrjSkkBZsaYSL5f-74" style="edgeStyle=orthogonalEdgeStyle;curved=0;rounded=1;sketch=0;orthogonalLoop=1;jettySize=auto;html=1;entryX=1;entryY=0.75;entryDx=0;entryDy=0;endArrow=classic;endFill=1;strokeColor=#E07A5F;fillColor=#F2CC8F;fontColor=#393C56;" edge="1" parent="1" source="e-hLkIrjSkkBZsaYSL5f-73" target="e-hLkIrjSkkBZsaYSL5f-10">
          <mxGeometry relative="1" as="geometry" />
        </mxCell>
        <mxCell id="e-hLkIrjSkkBZsaYSL5f-73" value="&lt;ul&gt;&lt;li&gt;cÃ³digo&lt;/li&gt;&lt;/ul&gt;" style="text;html=1;align=center;verticalAlign=middle;resizable=0;points=[];autosize=1;fontColor=#393C56;" vertex="1" parent="1">
          <mxGeometry x="35" y="630" width="90" height="40" as="geometry" />
        </mxCell>
        <mxCell id="e-hLkIrjSkkBZsaYSL5f-75" value="nome" style="text;html=1;align=center;verticalAlign=middle;resizable=0;points=[];autosize=1;fontColor=#393C56;" vertex="1" parent="1">
          <mxGeometry x="546" y="182" width="50" height="20" as="geometry" />
        </mxCell>
        <mxCell id="e-hLkIrjSkkBZsaYSL5f-76" value="&lt;ul&gt;&lt;li&gt;rg&lt;/li&gt;&lt;/ul&gt;" style="text;html=1;align=center;verticalAlign=middle;resizable=0;points=[];autosize=1;fontColor=#393C56;" vertex="1" parent="1">
          <mxGeometry x="510" y="190" width="70" height="40" as="geometry" />
        </mxCell>
        <mxCell id="e-hLkIrjSkkBZsaYSL5f-78" style="edgeStyle=orthogonalEdgeStyle;curved=0;rounded=1;sketch=0;orthogonalLoop=1;jettySize=auto;html=1;entryX=0.583;entryY=1;entryDx=0;entryDy=0;entryPerimeter=0;endArrow=classic;endFill=1;strokeColor=#E07A5F;fillColor=#F2CC8F;fontColor=#393C56;exitX=0.433;exitY=1.2;exitDx=0;exitDy=0;exitPerimeter=0;" edge="1" parent="1" source="e-hLkIrjSkkBZsaYSL5f-77" target="e-hLkIrjSkkBZsaYSL5f-20">
          <mxGeometry relative="1" as="geometry">
            <Array as="points">
              <mxPoint x="563" y="280" />
              <mxPoint x="470" y="280" />
            </Array>
          </mxGeometry>
        </mxCell>
        <mxCell id="e-hLkIrjSkkBZsaYSL5f-77" value="cpf" style="text;html=1;align=center;verticalAlign=middle;resizable=0;points=[];autosize=1;fontColor=#393C56;" vertex="1" parent="1">
          <mxGeometry x="550" y="214" width="30" height="20" as="geometry" />
        </mxCell>
        <mxCell id="e-hLkIrjSkkBZsaYSL5f-80" style="edgeStyle=orthogonalEdgeStyle;curved=0;rounded=1;sketch=0;orthogonalLoop=1;jettySize=auto;html=1;entryX=0.642;entryY=1;entryDx=0;entryDy=0;entryPerimeter=0;endArrow=classic;endFill=1;strokeColor=#E07A5F;fillColor=#F2CC8F;fontColor=#393C56;" edge="1" parent="1" source="e-hLkIrjSkkBZsaYSL5f-79" target="e-hLkIrjSkkBZsaYSL5f-27">
          <mxGeometry relative="1" as="geometry" />
        </mxCell>
        <mxCell id="e-hLkIrjSkkBZsaYSL5f-79" value="data de inicio" style="text;html=1;align=center;verticalAlign=middle;resizable=0;points=[];autosize=1;fontColor=#393C56;" vertex="1" parent="1">
          <mxGeometry x="592" y="394" width="90" height="20" as="geometry" />
        </mxCell>
        <mxCell id="e-hLkIrjSkkBZsaYSL5f-81" value="(1,1)" style="text;html=1;align=center;verticalAlign=middle;resizable=0;points=[];autosize=1;fontColor=#393C56;" vertex="1" parent="1">
          <mxGeometry x="-250" y="150" width="40" height="20" as="geometry" />
        </mxCell>
        <mxCell id="e-hLkIrjSkkBZsaYSL5f-82" value="(1,n)" style="text;html=1;align=center;verticalAlign=middle;resizable=0;points=[];autosize=1;fontColor=#393C56;" vertex="1" parent="1">
          <mxGeometry x="-95" y="330" width="40" height="20" as="geometry" />
        </mxCell>
        <mxCell id="e-hLkIrjSkkBZsaYSL5f-83" value="(1,1)" style="text;html=1;align=center;verticalAlign=middle;resizable=0;points=[];autosize=1;fontColor=#393C56;" vertex="1" parent="1">
          <mxGeometry x="127" y="335" width="40" height="20" as="geometry" />
        </mxCell>
        <mxCell id="e-hLkIrjSkkBZsaYSL5f-84" value="(1,1)" style="text;html=1;align=center;verticalAlign=middle;resizable=0;points=[];autosize=1;fontColor=#393C56;" vertex="1" parent="1">
          <mxGeometry x="242" y="295" width="40" height="20" as="geometry" />
        </mxCell>
        <mxCell id="e-hLkIrjSkkBZsaYSL5f-85" value="(0)" style="text;html=1;align=center;verticalAlign=middle;resizable=0;points=[];autosize=1;fontColor=#393C56;" vertex="1" parent="1">
          <mxGeometry x="-75" y="630" width="30" height="20" as="geometry" />
        </mxCell>
        <mxCell id="e-hLkIrjSkkBZsaYSL5f-86" value="(1)" style="text;html=1;align=center;verticalAlign=middle;resizable=0;points=[];autosize=1;fontColor=#393C56;" vertex="1" parent="1">
          <mxGeometry x="-85" y="530" width="30" height="20" as="geometry" />
        </mxCell>
        <mxCell id="e-hLkIrjSkkBZsaYSL5f-87" value="(0)" style="text;html=1;align=center;verticalAlign=middle;resizable=0;points=[];autosize=1;fontColor=#393C56;" vertex="1" parent="1">
          <mxGeometry x="405" y="180" width="30" height="20" as="geometry" />
        </mxCell>
        <mxCell id="e-hLkIrjSkkBZsaYSL5f-88" value="(1)" style="text;html=1;align=center;verticalAlign=middle;resizable=0;points=[];autosize=1;fontColor=#393C56;" vertex="1" parent="1">
          <mxGeometry x="481" y="180" width="30" height="20" as="geometry" />
        </mxCell>
        <mxCell id="e-hLkIrjSkkBZsaYSL5f-89" value="(0,n)" style="text;html=1;align=center;verticalAlign=middle;resizable=0;points=[];autosize=1;fontColor=#393C56;" vertex="1" parent="1">
          <mxGeometry x="423" y="289" width="40" height="20" as="geometry" />
        </mxCell>
        <mxCell id="e-hLkIrjSkkBZsaYSL5f-90" value="(1,1)" style="text;html=1;align=center;verticalAlign=middle;resizable=0;points=[];autosize=1;fontColor=#393C56;" vertex="1" parent="1">
          <mxGeometry x="456" y="292" width="40" height="20" as="geometry" />
        </mxCell>
        <mxCell id="e-hLkIrjSkkBZsaYSL5f-91" value="nome" style="text;html=1;align=center;verticalAlign=middle;resizable=0;points=[];autosize=1;fontColor=#393C56;" vertex="1" parent="1">
          <mxGeometry x="592" y="410" width="50" height="20" as="geometry" />
        </mxCell>
        <mxCell id="e-hLkIrjSkkBZsaYSL5f-92" value="cpf" style="text;html=1;align=center;verticalAlign=middle;resizable=0;points=[];autosize=1;fontColor=#393C56;" vertex="1" parent="1">
          <mxGeometry x="596" y="430" width="30" height="20" as="geometry" />
        </mxCell>
        <mxCell id="e-hLkIrjSkkBZsaYSL5f-93" value="&lt;ul&gt;&lt;li&gt;rg&lt;/li&gt;&lt;/ul&gt;" style="text;html=1;align=center;verticalAlign=middle;resizable=0;points=[];autosize=1;fontColor=#393C56;" vertex="1" parent="1">
          <mxGeometry x="557" y="440" width="70" height="40" as="geometry" />
        </mxCell>
        <mxCell id="e-hLkIrjSkkBZsaYSL5f-94" value="departamento" style="text;html=1;align=center;verticalAlign=middle;resizable=0;points=[];autosize=1;fontColor=#393C56;" vertex="1" parent="1">
          <mxGeometry x="593" y="480" width="90" height="20" as="geometry" />
        </mxCell>
        <mxCell id="e-hLkIrjSkkBZsaYSL5f-101" style="edgeStyle=orthogonalEdgeStyle;curved=0;rounded=1;sketch=0;orthogonalLoop=1;jettySize=auto;html=1;endArrow=classic;endFill=1;strokeColor=#E07A5F;fillColor=#F2CC8F;fontColor=#393C56;" edge="1" parent="1" source="e-hLkIrjSkkBZsaYSL5f-95" target="e-hLkIrjSkkBZsaYSL5f-28">
          <mxGeometry relative="1" as="geometry" />
        </mxCell>
        <mxCell id="e-hLkIrjSkkBZsaYSL5f-95" value="nome" style="text;html=1;align=center;verticalAlign=middle;resizable=0;points=[];autosize=1;fontColor=#393C56;" vertex="1" parent="1">
          <mxGeometry x="435" y="480" width="50" height="20" as="geometry" />
        </mxCell>
        <mxCell id="e-hLkIrjSkkBZsaYSL5f-96" value="cpf" style="text;html=1;align=center;verticalAlign=middle;resizable=0;points=[];autosize=1;fontColor=#393C56;" vertex="1" parent="1">
          <mxGeometry x="441" y="499" width="30" height="20" as="geometry" />
        </mxCell>
        <mxCell id="e-hLkIrjSkkBZsaYSL5f-97" value="&lt;ul&gt;&lt;li&gt;rg&lt;/li&gt;&lt;/ul&gt;" style="text;html=1;align=center;verticalAlign=middle;resizable=0;points=[];autosize=1;fontColor=#393C56;" vertex="1" parent="1">
          <mxGeometry x="400" y="508" width="70" height="40" as="geometry" />
        </mxCell>
        <mxCell id="e-hLkIrjSkkBZsaYSL5f-98" value="departamento" style="text;html=1;align=center;verticalAlign=middle;resizable=0;points=[];autosize=1;fontColor=#393C56;" vertex="1" parent="1">
          <mxGeometry x="438" y="538" width="90" height="20" as="geometry" />
        </mxCell>
        <mxCell id="e-hLkIrjSkkBZsaYSL5f-99" value="data" style="text;html=1;align=center;verticalAlign=middle;resizable=0;points=[];autosize=1;fontColor=#393C56;" vertex="1" parent="1">
          <mxGeometry x="441" y="557" width="40" height="20" as="geometry" />
        </mxCell>
        <mxCell id="e-hLkIrjSkkBZsaYSL5f-102" value="&lt;ul&gt;&lt;li&gt;numeraÃ§Ã£o&lt;/li&gt;&lt;/ul&gt;" style="text;html=1;align=center;verticalAlign=middle;resizable=0;points=[];autosize=1;fontColor=#393C56;" vertex="1" parent="1">
          <mxGeometry x="203" y="437" width="120" height="40" as="geometry" />
        </mxCell>
        <mxCell id="e-hLkIrjSkkBZsaYSL5f-104" style="edgeStyle=orthogonalEdgeStyle;curved=0;rounded=1;sketch=0;orthogonalLoop=1;jettySize=auto;html=1;entryX=1.037;entryY=0.614;entryDx=0;entryDy=0;entryPerimeter=0;endArrow=classic;endFill=1;strokeColor=#E07A5F;fillColor=#F2CC8F;fontColor=#393C56;" edge="1" parent="1" source="e-hLkIrjSkkBZsaYSL5f-103" target="e-hLkIrjSkkBZsaYSL5f-6">
          <mxGeometry relative="1" as="geometry" />
        </mxCell>
        <mxCell id="e-hLkIrjSkkBZsaYSL5f-103" value="&lt;ul&gt;&lt;li&gt;numeraÃ§Ã£o&lt;/li&gt;&lt;/ul&gt;" style="text;html=1;align=center;verticalAlign=middle;resizable=0;points=[];autosize=1;fontColor=#393C56;" vertex="1" parent="1">
          <mxGeometry x="20" y="214" width="120" height="40" as="geometry" />
        </mxCell>
        <mxCell id="e-hLkIrjSkkBZsaYSL5f-108" style="edgeStyle=orthogonalEdgeStyle;curved=0;rounded=1;sketch=0;orthogonalLoop=1;jettySize=auto;html=1;entryX=0.25;entryY=1;entryDx=0;entryDy=0;endArrow=classic;endFill=1;strokeColor=#E07A5F;fillColor=#F2CC8F;fontColor=#393C56;exitX=0.625;exitY=-0.15;exitDx=0;exitDy=0;exitPerimeter=0;" edge="1" parent="1" source="e-hLkIrjSkkBZsaYSL5f-105" target="e-hLkIrjSkkBZsaYSL5f-4">
          <mxGeometry relative="1" as="geometry">
            <Array as="points">
              <mxPoint x="-110" y="370" />
              <mxPoint x="-30" y="370" />
              <mxPoint x="-30" y="380" />
              <mxPoint x="-25" y="380" />
            </Array>
          </mxGeometry>
        </mxCell>
        <mxCell id="e-hLkIrjSkkBZsaYSL5f-105" value="relatorio mensal de vendas" style="text;html=1;align=center;verticalAlign=middle;resizable=0;points=[];autosize=1;fontColor=#393C56;" vertex="1" parent="1">
          <mxGeometry x="-210" y="380" width="160" height="20" as="geometry" />
        </mxCell>
        <mxCell id="e-hLkIrjSkkBZsaYSL5f-106" value="comissÃµes pagas" style="text;html=1;align=center;verticalAlign=middle;resizable=0;points=[];autosize=1;fontColor=#393C56;" vertex="1" parent="1">
          <mxGeometry x="-185" y="394" width="110" height="20" as="geometry" />
        </mxCell>
        <mxCell id="e-hLkIrjSkkBZsaYSL5f-107" value="&lt;ul&gt;&lt;li&gt;area do departamento&lt;/li&gt;&lt;/ul&gt;" style="text;html=1;align=center;verticalAlign=middle;resizable=0;points=[];autosize=1;fontColor=#393C56;" vertex="1" parent="1">
          <mxGeometry x="-230" y="400" width="170" height="40" as="geometry" />
        </mxCell>
        <mxCell id="e-hLkIrjSkkBZsaYSL5f-111" style="edgeStyle=orthogonalEdgeStyle;curved=0;rounded=1;sketch=0;orthogonalLoop=1;jettySize=auto;html=1;entryX=0.108;entryY=-0.05;entryDx=0;entryDy=0;entryPerimeter=0;endArrow=classic;endFill=1;strokeColor=#E07A5F;fillColor=#F2CC8F;fontColor=#393C56;" edge="1" parent="1" source="e-hLkIrjSkkBZsaYSL5f-109" target="e-hLkIrjSkkBZsaYSL5f-45">
          <mxGeometry relative="1" as="geometry">
            <Array as="points">
              <mxPoint x="-355" y="80" />
              <mxPoint x="-330" y="80" />
              <mxPoint x="-330" y="50" />
              <mxPoint x="-297" y="50" />
            </Array>
          </mxGeometry>
        </mxCell>
        <mxCell id="e-hLkIrjSkkBZsaYSL5f-109" value="nome" style="text;html=1;align=center;verticalAlign=middle;resizable=0;points=[];autosize=1;fontColor=#393C56;" vertex="1" parent="1">
          <mxGeometry x="-380" y="100" width="50" height="20" as="geometry" />
        </mxCell>
        <mxCell id="e-hLkIrjSkkBZsaYSL5f-110" value="&lt;ul&gt;&lt;li&gt;cnpj&lt;/li&gt;&lt;/ul&gt;" style="text;html=1;align=center;verticalAlign=middle;resizable=0;points=[];autosize=1;fontColor=#393C56;" vertex="1" parent="1">
          <mxGeometry x="-420" y="110" width="80" height="40" as="geometry" />
        </mxCell>
      </root>
    </mxGraphModel>
  </diagram>
</mxfile>
